<mxfile>
    <diagram id="_CVl8sColJwZ4kO43qYV" name="Page-1">
        <mxGraphModel dx="1765" dy="815" grid="1" gridSize="10" guides="1" tooltips="1" connect="1" arrows="1" fold="1" page="1" pageScale="1" pageWidth="1654" pageHeight="1169" math="0" shadow="0">
            <root>
                <mxCell id="0"/>
                <mxCell id="1" parent="0"/>
                <mxCell id="83" style="edgeStyle=orthogonalEdgeStyle;rounded=0;orthogonalLoop=1;jettySize=auto;html=1;startArrow=classic;startFill=1;" parent="1" source="27" target="41" edge="1">
                    <mxGeometry relative="1" as="geometry"/>
                </mxCell>
                <mxCell id="84" style="edgeStyle=orthogonalEdgeStyle;rounded=0;orthogonalLoop=1;jettySize=auto;html=1;startArrow=none;startFill=0;" parent="1" source="27" target="50" edge="1">
                    <mxGeometry relative="1" as="geometry"/>
                </mxCell>
                <mxCell id="27" value="nvm" style="swimlane;fontStyle=1;align=center;verticalAlign=top;childLayout=stackLayout;horizontal=1;startSize=26;horizontalStack=0;resizeParent=1;resizeParentMax=0;resizeLast=0;collapsible=1;marginBottom=0;fillColor=#008a00;strokeColor=#005700;fontColor=#ffffff;" parent="1" vertex="1">
                    <mxGeometry x="1040" y="820" width="460" height="190" as="geometry">
                        <mxRectangle x="120" y="220" width="100" height="26" as="alternateBounds"/>
                    </mxGeometry>
                </mxCell>
                <mxCell id="29" value="" style="line;strokeWidth=1;fillColor=none;align=left;verticalAlign=middle;spacingTop=-1;spacingLeft=3;spacingRight=3;rotatable=0;labelPosition=right;points=[];portConstraint=eastwest;" parent="27" vertex="1">
                    <mxGeometry y="26" width="460" height="8" as="geometry"/>
                </mxCell>
                <object label="+ nvmInit(void): void" id="54">
                    <mxCell style="text;strokeColor=none;fillColor=none;align=left;verticalAlign=top;spacingLeft=4;spacingRight=4;overflow=hidden;rotatable=0;points=[[0,0.5],[1,0.5]];portConstraint=eastwest;" parent="27" vertex="1">
                        <mxGeometry y="34" width="460" height="26" as="geometry"/>
                    </mxCell>
                </object>
                <object label="+ nvmComittRamMirror(void): void" id="53">
                    <mxCell style="text;strokeColor=none;fillColor=none;align=left;verticalAlign=top;spacingLeft=4;spacingRight=4;overflow=hidden;rotatable=0;points=[[0,0.5],[1,0.5]];portConstraint=eastwest;" parent="27" vertex="1">
                        <mxGeometry y="60" width="460" height="26" as="geometry"/>
                    </mxCell>
                </object>
                <object label="+ nvmUpdateRamMirrorCrcByIndex(uint32_t): void" id="30">
                    <mxCell style="text;strokeColor=none;fillColor=none;align=left;verticalAlign=top;spacingLeft=4;spacingRight=4;overflow=hidden;rotatable=0;points=[[0,0.5],[1,0.5]];portConstraint=eastwest;" parent="27" vertex="1">
                        <mxGeometry y="86" width="460" height="26" as="geometry"/>
                    </mxCell>
                </object>
                <object label="+ nvmTransmitStatusMessage(void): void" id="58">
                    <mxCell style="text;strokeColor=none;fillColor=none;align=left;verticalAlign=top;spacingLeft=4;spacingRight=4;overflow=hidden;rotatable=0;points=[[0,0.5],[1,0.5]];portConstraint=eastwest;" parent="27" vertex="1">
                        <mxGeometry y="112" width="460" height="26" as="geometry"/>
                    </mxCell>
                </object>
                <object label="+ nvmClear(void): void" id="99">
                    <mxCell style="text;strokeColor=none;fillColor=none;align=left;verticalAlign=top;spacingLeft=4;spacingRight=4;overflow=hidden;rotatable=0;points=[[0,0.5],[1,0.5]];portConstraint=eastwest;" parent="27" vertex="1">
                        <mxGeometry y="138" width="460" height="26" as="geometry"/>
                    </mxCell>
                </object>
                <object label="- nvmCheckIntegrity(void): void" id="39">
                    <mxCell style="text;strokeColor=none;fillColor=none;align=left;verticalAlign=top;spacingLeft=4;spacingRight=4;overflow=hidden;rotatable=0;points=[[0,0.5],[1,0.5]];portConstraint=eastwest;" parent="27" vertex="1">
                        <mxGeometry y="164" width="460" height="26" as="geometry"/>
                    </mxCell>
                </object>
                <mxCell id="80" style="edgeStyle=orthogonalEdgeStyle;rounded=0;orthogonalLoop=1;jettySize=auto;html=1;startArrow=classic;startFill=1;" parent="1" source="33" target="27" edge="1">
                    <mxGeometry relative="1" as="geometry"/>
                </mxCell>
                <mxCell id="33" value="nvm_cfg" style="swimlane;fontStyle=1;align=center;verticalAlign=top;childLayout=stackLayout;horizontal=1;startSize=26;horizontalStack=0;resizeParent=1;resizeParentMax=0;resizeLast=0;collapsible=1;marginBottom=0;fillColor=#0050ef;strokeColor=#001DBC;fontColor=#ffffff;" parent="1" vertex="1">
                    <mxGeometry x="1120" y="570" width="380" height="216" as="geometry">
                        <mxRectangle x="120" y="220" width="100" height="26" as="alternateBounds"/>
                    </mxGeometry>
                </mxCell>
                <mxCell id="48" value="- nvmConfig[]: nvmStructureConfig " style="text;strokeColor=none;fillColor=none;align=left;verticalAlign=top;spacingLeft=4;spacingRight=4;overflow=hidden;rotatable=0;points=[[0,0.5],[1,0.5]];portConstraint=eastwest;" parent="33" vertex="1">
                    <mxGeometry y="26" width="380" height="26" as="geometry"/>
                </mxCell>
                <mxCell id="49" value="- nvmSubConfig&lt;xxx&gt;Default: nvmSubConfig&lt;xxx&gt;" style="text;strokeColor=none;fillColor=none;align=left;verticalAlign=top;spacingLeft=4;spacingRight=4;overflow=hidden;rotatable=0;points=[[0,0.5],[1,0.5]];portConstraint=eastwest;" parent="33" vertex="1">
                    <mxGeometry y="52" width="380" height="26" as="geometry"/>
                </mxCell>
                <mxCell id="34" value="- nvmRamMirror: nvmCompleteStructure" style="text;strokeColor=none;fillColor=none;align=left;verticalAlign=top;spacingLeft=4;spacingRight=4;overflow=hidden;rotatable=0;points=[[0,0.5],[1,0.5]];portConstraint=eastwest;" parent="33" vertex="1">
                    <mxGeometry y="78" width="380" height="26" as="geometry"/>
                </mxCell>
                <mxCell id="35" value="" style="line;strokeWidth=1;fillColor=none;align=left;verticalAlign=middle;spacingTop=-1;spacingLeft=3;spacingRight=3;rotatable=0;labelPosition=right;points=[];portConstraint=eastwest;" parent="33" vertex="1">
                    <mxGeometry y="104" width="380" height="8" as="geometry"/>
                </mxCell>
                <mxCell id="38" value="+ nvmGetConfigPointerRO(nvmStructureConfig **): uint32_t" style="text;strokeColor=none;fillColor=none;align=left;verticalAlign=top;spacingLeft=4;spacingRight=4;overflow=hidden;rotatable=0;points=[[0,0.5],[1,0.5]];portConstraint=eastwest;" parent="33" vertex="1">
                    <mxGeometry y="112" width="380" height="26" as="geometry"/>
                </mxCell>
                <mxCell id="36" value="+ nvmGetRamMirrorPointerRW(nvmCompleteStructure **): uint32_t " style="text;strokeColor=none;fillColor=none;align=left;verticalAlign=top;spacingLeft=4;spacingRight=4;overflow=hidden;rotatable=0;points=[[0,0.5],[1,0.5]];portConstraint=eastwest;" parent="33" vertex="1">
                    <mxGeometry y="138" width="380" height="26" as="geometry"/>
                </mxCell>
                <mxCell id="37" value="+ nvmGetRamMirrorPointerRO(nvmCompleteStructure **): uint32_t" style="text;strokeColor=none;fillColor=none;align=left;verticalAlign=top;spacingLeft=4;spacingRight=4;overflow=hidden;rotatable=0;points=[[0,0.5],[1,0.5]];portConstraint=eastwest;" parent="33" vertex="1">
                    <mxGeometry y="164" width="380" height="26" as="geometry"/>
                </mxCell>
                <mxCell id="57" value="+ nvmUpdateRamMirrorCrcByName(nvmSubConfigIndex): void" style="text;strokeColor=none;fillColor=none;align=left;verticalAlign=top;spacingLeft=4;spacingRight=4;overflow=hidden;rotatable=0;points=[[0,0.5],[1,0.5]];portConstraint=eastwest;" parent="33" vertex="1">
                    <mxGeometry y="190" width="380" height="26" as="geometry"/>
                </mxCell>
                <mxCell id="41" value="EEPROM" style="html=1;fillColor=#76608a;strokeColor=#432D57;fontColor=#ffffff;" parent="1" vertex="1">
                    <mxGeometry x="1040" y="1070" width="220" height="31" as="geometry"/>
                </mxCell>
                <mxCell id="50" value="CRC32 lib" style="html=1;fillColor=#647687;strokeColor=#314354;fontColor=#ffffff;" parent="1" vertex="1">
                    <mxGeometry x="1300" y="1071" width="200" height="30" as="geometry"/>
                </mxCell>
                <mxCell id="55" style="edgeStyle=orthogonalEdgeStyle;rounded=0;orthogonalLoop=1;jettySize=auto;html=1;exitX=0.5;exitY=1;exitDx=0;exitDy=0;" parent="1" source="41" target="41" edge="1">
                    <mxGeometry relative="1" as="geometry"/>
                </mxCell>
                <mxCell id="78" style="edgeStyle=orthogonalEdgeStyle;rounded=0;orthogonalLoop=1;jettySize=auto;html=1;entryX=0.5;entryY=0;entryDx=0;entryDy=0;" parent="1" source="59" target="75" edge="1">
                    <mxGeometry relative="1" as="geometry"/>
                </mxCell>
                <mxCell id="59" value="outputs" style="swimlane;fontStyle=1;align=center;verticalAlign=top;childLayout=stackLayout;horizontal=1;startSize=26;horizontalStack=0;resizeParent=1;resizeParentMax=0;resizeLast=0;collapsible=1;marginBottom=0;fillColor=#008a00;strokeColor=#005700;fontColor=#ffffff;" parent="1" vertex="1">
                    <mxGeometry x="540" y="820" width="460" height="112" as="geometry">
                        <mxRectangle x="120" y="220" width="100" height="26" as="alternateBounds"/>
                    </mxGeometry>
                </mxCell>
                <mxCell id="60" value="" style="line;strokeWidth=1;fillColor=none;align=left;verticalAlign=middle;spacingTop=-1;spacingLeft=3;spacingRight=3;rotatable=0;labelPosition=right;points=[];portConstraint=eastwest;" parent="59" vertex="1">
                    <mxGeometry y="26" width="460" height="8" as="geometry"/>
                </mxCell>
                <object label="+ outputsInit(void): void" id="65">
                    <mxCell style="text;strokeColor=none;fillColor=none;align=left;verticalAlign=top;spacingLeft=4;spacingRight=4;overflow=hidden;rotatable=0;points=[[0,0.5],[1,0.5]];portConstraint=eastwest;" parent="59" vertex="1">
                        <mxGeometry y="34" width="460" height="26" as="geometry"/>
                    </mxCell>
                </object>
                <object label="+ outputsCyclicTask(void): void" id="64">
                    <mxCell style="text;strokeColor=none;fillColor=none;align=left;verticalAlign=top;spacingLeft=4;spacingRight=4;overflow=hidden;rotatable=0;points=[[0,0.5],[1,0.5]];portConstraint=eastwest;" parent="59" vertex="1">
                        <mxGeometry y="60" width="460" height="26" as="geometry"/>
                    </mxCell>
                </object>
                <object label="+ outputsSetOutputByIndex(uint32_t, outputCycleConfig): void" id="63">
                    <mxCell style="text;strokeColor=none;fillColor=none;align=left;verticalAlign=top;spacingLeft=4;spacingRight=4;overflow=hidden;rotatable=0;points=[[0,0.5],[1,0.5]];portConstraint=eastwest;" parent="59" vertex="1">
                        <mxGeometry y="86" width="460" height="26" as="geometry"/>
                    </mxCell>
                </object>
                <mxCell id="77" style="edgeStyle=orthogonalEdgeStyle;rounded=0;orthogonalLoop=1;jettySize=auto;html=1;entryX=0.5;entryY=0;entryDx=0;entryDy=0;" parent="1" source="66" target="59" edge="1">
                    <mxGeometry relative="1" as="geometry"/>
                </mxCell>
                <mxCell id="66" value="outputs_cfg" style="swimlane;fontStyle=1;align=center;verticalAlign=top;childLayout=stackLayout;horizontal=1;startSize=26;horizontalStack=0;resizeParent=1;resizeParentMax=0;resizeLast=0;collapsible=1;marginBottom=0;fillColor=#0050ef;strokeColor=#001DBC;fontColor=#ffffff;" parent="1" vertex="1">
                    <mxGeometry x="620" y="570" width="370" height="138" as="geometry">
                        <mxRectangle x="120" y="220" width="100" height="26" as="alternateBounds"/>
                    </mxGeometry>
                </mxCell>
                <mxCell id="68" value="- outputConfig[]: outputConfiguration" style="text;strokeColor=none;fillColor=none;align=left;verticalAlign=top;spacingLeft=4;spacingRight=4;overflow=hidden;rotatable=0;points=[[0,0.5],[1,0.5]];portConstraint=eastwest;" parent="66" vertex="1">
                    <mxGeometry y="26" width="370" height="26" as="geometry"/>
                </mxCell>
                <mxCell id="70" value="" style="line;strokeWidth=1;fillColor=none;align=left;verticalAlign=middle;spacingTop=-1;spacingLeft=3;spacingRight=3;rotatable=0;labelPosition=right;points=[];portConstraint=eastwest;" parent="66" vertex="1">
                    <mxGeometry y="52" width="370" height="8" as="geometry"/>
                </mxCell>
                <mxCell id="72" value="+ outputsGetConfigPointerRW(outputConfiguration **): uint32_t " style="text;strokeColor=none;fillColor=none;align=left;verticalAlign=top;spacingLeft=4;spacingRight=4;overflow=hidden;rotatable=0;points=[[0,0.5],[1,0.5]];portConstraint=eastwest;" parent="66" vertex="1">
                    <mxGeometry y="60" width="370" height="26" as="geometry"/>
                </mxCell>
                <mxCell id="71" value="+ outputsGetConfigPointerRO(outputConfiguration **): uint32_t " style="text;strokeColor=none;fillColor=none;align=left;verticalAlign=top;spacingLeft=4;spacingRight=4;overflow=hidden;rotatable=0;points=[[0,0.5],[1,0.5]];portConstraint=eastwest;" parent="66" vertex="1">
                    <mxGeometry y="86" width="370" height="26" as="geometry"/>
                </mxCell>
                <mxCell id="73" value="+ outputsSetOutputByName(outputIndex, outputCycleConfig): void" style="text;strokeColor=none;fillColor=none;align=left;verticalAlign=top;spacingLeft=4;spacingRight=4;overflow=hidden;rotatable=0;points=[[0,0.5],[1,0.5]];portConstraint=eastwest;" parent="66" vertex="1">
                    <mxGeometry y="112" width="370" height="26" as="geometry"/>
                </mxCell>
                <mxCell id="75" value="IO" style="html=1;fillColor=#76608a;strokeColor=#432D57;fontColor=#ffffff;" parent="1" vertex="1">
                    <mxGeometry x="540" y="1070" width="460" height="31" as="geometry"/>
                </mxCell>
                <mxCell id="85" style="edgeStyle=orthogonalEdgeStyle;rounded=0;orthogonalLoop=1;jettySize=auto;html=1;entryX=0.5;entryY=0;entryDx=0;entryDy=0;" parent="1" source="86" target="98" edge="1">
                    <mxGeometry relative="1" as="geometry"/>
                </mxCell>
                <mxCell id="86" value="inputs" style="swimlane;fontStyle=1;align=center;verticalAlign=top;childLayout=stackLayout;horizontal=1;startSize=26;horizontalStack=0;resizeParent=1;resizeParentMax=0;resizeLast=0;collapsible=1;marginBottom=0;fillColor=#008a00;strokeColor=#005700;fontColor=#ffffff;" parent="1" vertex="1">
                    <mxGeometry x="30" y="820" width="460" height="112" as="geometry">
                        <mxRectangle x="120" y="220" width="100" height="26" as="alternateBounds"/>
                    </mxGeometry>
                </mxCell>
                <mxCell id="87" value="" style="line;strokeWidth=1;fillColor=none;align=left;verticalAlign=middle;spacingTop=-1;spacingLeft=3;spacingRight=3;rotatable=0;labelPosition=right;points=[];portConstraint=eastwest;" parent="86" vertex="1">
                    <mxGeometry y="26" width="460" height="8" as="geometry"/>
                </mxCell>
                <object label="+ inputsInit(void): void" id="88">
                    <mxCell style="text;strokeColor=none;fillColor=none;align=left;verticalAlign=top;spacingLeft=4;spacingRight=4;overflow=hidden;rotatable=0;points=[[0,0.5],[1,0.5]];portConstraint=eastwest;" parent="86" vertex="1">
                        <mxGeometry y="34" width="460" height="26" as="geometry"/>
                    </mxCell>
                </object>
                <object label="+ inputsCyclicTask(void): void" id="89">
                    <mxCell style="text;strokeColor=none;fillColor=none;align=left;verticalAlign=top;spacingLeft=4;spacingRight=4;overflow=hidden;rotatable=0;points=[[0,0.5],[1,0.5]];portConstraint=eastwest;" parent="86" vertex="1">
                        <mxGeometry y="60" width="460" height="26" as="geometry"/>
                    </mxCell>
                </object>
                <object label="+ inputsReadInputByIndex(uint32_t): uint8_t " id="90">
                    <mxCell style="text;strokeColor=none;fillColor=none;align=left;verticalAlign=top;spacingLeft=4;spacingRight=4;overflow=hidden;rotatable=0;points=[[0,0.5],[1,0.5]];portConstraint=eastwest;" parent="86" vertex="1">
                        <mxGeometry y="86" width="460" height="26" as="geometry"/>
                    </mxCell>
                </object>
                <mxCell id="91" style="edgeStyle=orthogonalEdgeStyle;rounded=0;orthogonalLoop=1;jettySize=auto;html=1;entryX=0.5;entryY=0;entryDx=0;entryDy=0;" parent="1" source="92" target="86" edge="1">
                    <mxGeometry relative="1" as="geometry"/>
                </mxCell>
                <mxCell id="92" value="inputs_cfg" style="swimlane;fontStyle=1;align=center;verticalAlign=top;childLayout=stackLayout;horizontal=1;startSize=26;horizontalStack=0;resizeParent=1;resizeParentMax=0;resizeLast=0;collapsible=1;marginBottom=0;fillColor=#0050ef;strokeColor=#001DBC;fontColor=#ffffff;" parent="1" vertex="1">
                    <mxGeometry x="110" y="570" width="370" height="138" as="geometry">
                        <mxRectangle x="120" y="220" width="100" height="26" as="alternateBounds"/>
                    </mxGeometry>
                </mxCell>
                <mxCell id="93" value="- inputConfig[]: inputConfiguration" style="text;strokeColor=none;fillColor=none;align=left;verticalAlign=top;spacingLeft=4;spacingRight=4;overflow=hidden;rotatable=0;points=[[0,0.5],[1,0.5]];portConstraint=eastwest;" parent="92" vertex="1">
                    <mxGeometry y="26" width="370" height="26" as="geometry"/>
                </mxCell>
                <mxCell id="94" value="" style="line;strokeWidth=1;fillColor=none;align=left;verticalAlign=middle;spacingTop=-1;spacingLeft=3;spacingRight=3;rotatable=0;labelPosition=right;points=[];portConstraint=eastwest;" parent="92" vertex="1">
                    <mxGeometry y="52" width="370" height="8" as="geometry"/>
                </mxCell>
                <mxCell id="95" value="+ inputsGetConfigPointerRO(inputConfiguration **): uint32_t " style="text;strokeColor=none;fillColor=none;align=left;verticalAlign=top;spacingLeft=4;spacingRight=4;overflow=hidden;rotatable=0;points=[[0,0.5],[1,0.5]];portConstraint=eastwest;" parent="92" vertex="1">
                    <mxGeometry y="60" width="370" height="26" as="geometry"/>
                </mxCell>
                <mxCell id="96" value="+ inputsGetConfigPointerRW(inputConfiguration **): uint32_t" style="text;strokeColor=none;fillColor=none;align=left;verticalAlign=top;spacingLeft=4;spacingRight=4;overflow=hidden;rotatable=0;points=[[0,0.5],[1,0.5]];portConstraint=eastwest;" parent="92" vertex="1">
                    <mxGeometry y="86" width="370" height="26" as="geometry"/>
                </mxCell>
                <mxCell id="97" value="+ inputsReadInputByName(inputIndex): uint8_t" style="text;strokeColor=none;fillColor=none;align=left;verticalAlign=top;spacingLeft=4;spacingRight=4;overflow=hidden;rotatable=0;points=[[0,0.5],[1,0.5]];portConstraint=eastwest;" parent="92" vertex="1">
                    <mxGeometry y="112" width="370" height="26" as="geometry"/>
                </mxCell>
                <mxCell id="98" value="IO" style="html=1;fillColor=#76608a;strokeColor=#432D57;fontColor=#ffffff;" parent="1" vertex="1">
                    <mxGeometry x="30" y="1070" width="460" height="31" as="geometry"/>
                </mxCell>
                <mxCell id="124" style="edgeStyle=orthogonalEdgeStyle;rounded=0;orthogonalLoop=1;jettySize=auto;html=1;startArrow=none;startFill=0;" parent="1" source="100" edge="1">
                    <mxGeometry relative="1" as="geometry">
                        <mxPoint x="260" y="400" as="targetPoint"/>
                        <Array as="points">
                            <mxPoint x="260" y="390"/>
                        </Array>
                    </mxGeometry>
                </mxCell>
                <mxCell id="126" style="edgeStyle=orthogonalEdgeStyle;rounded=0;orthogonalLoop=1;jettySize=auto;html=1;startArrow=classic;startFill=1;endArrow=none;endFill=0;" parent="1" source="100" edge="1">
                    <mxGeometry relative="1" as="geometry">
                        <mxPoint x="300" y="400" as="targetPoint"/>
                        <Array as="points">
                            <mxPoint x="300" y="390"/>
                        </Array>
                    </mxGeometry>
                </mxCell>
                <mxCell id="100" value="reset_ctrl" style="swimlane;fontStyle=1;align=center;verticalAlign=top;childLayout=stackLayout;horizontal=1;startSize=26;horizontalStack=0;resizeParent=1;resizeParentMax=0;resizeLast=0;collapsible=1;marginBottom=0;fillColor=#a0522d;strokeColor=#6D1F00;fontColor=#ffffff;" parent="1" vertex="1">
                    <mxGeometry x="100" y="40" width="370" height="268" as="geometry">
                        <mxRectangle x="100" y="40" width="100" height="26" as="alternateBounds"/>
                    </mxGeometry>
                </mxCell>
                <mxCell id="101" value="- resetCtrlCurrentState: resetCtrlStm" style="text;strokeColor=none;fillColor=none;align=left;verticalAlign=top;spacingLeft=4;spacingRight=4;overflow=hidden;rotatable=0;points=[[0,0.5],[1,0.5]];portConstraint=eastwest;" parent="100" vertex="1">
                    <mxGeometry y="26" width="370" height="26" as="geometry"/>
                </mxCell>
                <mxCell id="112" value="- resetCtrlRequestedResetType:resetCtrlTypes" style="text;strokeColor=none;fillColor=none;align=left;verticalAlign=top;spacingLeft=4;spacingRight=4;overflow=hidden;rotatable=0;points=[[0,0.5],[1,0.5]];portConstraint=eastwest;" parent="100" vertex="1">
                    <mxGeometry y="52" width="370" height="26" as="geometry"/>
                </mxCell>
                <mxCell id="113" value="- resetCtrlResetSwitchEnabled: uint8_t " style="text;strokeColor=none;fillColor=none;align=left;verticalAlign=top;spacingLeft=4;spacingRight=4;overflow=hidden;rotatable=0;points=[[0,0.5],[1,0.5]];portConstraint=eastwest;" parent="100" vertex="1">
                    <mxGeometry y="78" width="370" height="26" as="geometry"/>
                </mxCell>
                <mxCell id="102" value="" style="line;strokeWidth=1;fillColor=none;align=left;verticalAlign=middle;spacingTop=-1;spacingLeft=3;spacingRight=3;rotatable=0;labelPosition=right;points=[];portConstraint=eastwest;" parent="100" vertex="1">
                    <mxGeometry y="104" width="370" height="8" as="geometry"/>
                </mxCell>
                <mxCell id="104" value="+ restCtrlInit(void): void" style="text;strokeColor=none;fillColor=none;align=left;verticalAlign=top;spacingLeft=4;spacingRight=4;overflow=hidden;rotatable=0;points=[[0,0.5],[1,0.5]];portConstraint=eastwest;" parent="100" vertex="1">
                    <mxGeometry y="112" width="370" height="26" as="geometry"/>
                </mxCell>
                <mxCell id="105" value="+ restCtrlStateMachine(void): void" style="text;strokeColor=none;fillColor=none;align=left;verticalAlign=top;spacingLeft=4;spacingRight=4;overflow=hidden;rotatable=0;points=[[0,0.5],[1,0.5]];portConstraint=eastwest;" parent="100" vertex="1">
                    <mxGeometry y="138" width="370" height="26" as="geometry"/>
                </mxCell>
                <mxCell id="103" value="+ restCtrlSetResetRequest(resetCtrlTypes): void" style="text;strokeColor=none;fillColor=none;align=left;verticalAlign=top;spacingLeft=4;spacingRight=4;overflow=hidden;rotatable=0;points=[[0,0.5],[1,0.5]];portConstraint=eastwest;" parent="100" vertex="1">
                    <mxGeometry y="164" width="370" height="26" as="geometry"/>
                </mxCell>
                <mxCell id="114" value="+ restCtrlGetResetRequest(void): resetCtrlTypes" style="text;strokeColor=none;fillColor=none;align=left;verticalAlign=top;spacingLeft=4;spacingRight=4;overflow=hidden;rotatable=0;points=[[0,0.5],[1,0.5]];portConstraint=eastwest;" parent="100" vertex="1">
                    <mxGeometry y="190" width="370" height="26" as="geometry"/>
                </mxCell>
                <mxCell id="116" value="+ restCtrlGetResetState(void): resetCtrlStm" style="text;strokeColor=none;fillColor=none;align=left;verticalAlign=top;spacingLeft=4;spacingRight=4;overflow=hidden;rotatable=0;points=[[0,0.5],[1,0.5]];portConstraint=eastwest;" parent="100" vertex="1">
                    <mxGeometry y="216" width="370" height="26" as="geometry"/>
                </mxCell>
                <mxCell id="115" value="- restCtrlImmediateHandle(resetCtrlTypes): void" style="text;strokeColor=none;fillColor=none;align=left;verticalAlign=top;spacingLeft=4;spacingRight=4;overflow=hidden;rotatable=0;points=[[0,0.5],[1,0.5]];portConstraint=eastwest;" parent="100" vertex="1">
                    <mxGeometry y="242" width="370" height="26" as="geometry"/>
                </mxCell>
                <mxCell id="128" style="edgeStyle=orthogonalEdgeStyle;rounded=0;orthogonalLoop=1;jettySize=auto;html=1;startArrow=none;startFill=0;endArrow=classic;endFill=1;fontColor=#0000FF;" parent="1" source="106" edge="1">
                    <mxGeometry relative="1" as="geometry">
                        <mxPoint x="690" y="280" as="targetPoint"/>
                        <Array as="points">
                            <mxPoint x="690" y="280"/>
                        </Array>
                    </mxGeometry>
                </mxCell>
                <mxCell id="129" style="edgeStyle=orthogonalEdgeStyle;rounded=0;orthogonalLoop=1;jettySize=auto;html=1;startArrow=classic;startFill=1;endArrow=none;endFill=0;fontColor=#0000FF;" parent="1" source="106" edge="1">
                    <mxGeometry relative="1" as="geometry">
                        <mxPoint x="730" y="280" as="targetPoint"/>
                        <Array as="points">
                            <mxPoint x="730" y="280"/>
                        </Array>
                    </mxGeometry>
                </mxCell>
                <mxCell id="106" value="status_ctrl" style="swimlane;fontStyle=1;align=center;verticalAlign=top;childLayout=stackLayout;horizontal=1;startSize=26;horizontalStack=0;resizeParent=1;resizeParentMax=0;resizeLast=0;collapsible=1;marginBottom=0;fillColor=#a0522d;strokeColor=#6D1F00;fontColor=#ffffff;" parent="1" vertex="1">
                    <mxGeometry x="520" y="40" width="370" height="164" as="geometry">
                        <mxRectangle x="120" y="220" width="100" height="26" as="alternateBounds"/>
                    </mxGeometry>
                </mxCell>
                <mxCell id="107" value="- statusCtrlCurrentState: statusCtrlStm " style="text;strokeColor=none;fillColor=none;align=left;verticalAlign=top;spacingLeft=4;spacingRight=4;overflow=hidden;rotatable=0;points=[[0,0.5],[1,0.5]];portConstraint=eastwest;" parent="106" vertex="1">
                    <mxGeometry y="26" width="370" height="26" as="geometry"/>
                </mxCell>
                <mxCell id="117" value="- currentLedBrightness&lt;xxx&gt;Mode: uint16_t " style="text;strokeColor=none;fillColor=none;align=left;verticalAlign=top;spacingLeft=4;spacingRight=4;overflow=hidden;rotatable=0;points=[[0,0.5],[1,0.5]];portConstraint=eastwest;" parent="106" vertex="1">
                    <mxGeometry y="52" width="370" height="26" as="geometry"/>
                </mxCell>
                <mxCell id="108" value="" style="line;strokeWidth=1;fillColor=none;align=left;verticalAlign=middle;spacingTop=-1;spacingLeft=3;spacingRight=3;rotatable=0;labelPosition=right;points=[];portConstraint=eastwest;" parent="106" vertex="1">
                    <mxGeometry y="78" width="370" height="8" as="geometry"/>
                </mxCell>
                <mxCell id="109" value="+ statusCtrlInit(void): void" style="text;strokeColor=none;fillColor=none;align=left;verticalAlign=top;spacingLeft=4;spacingRight=4;overflow=hidden;rotatable=0;points=[[0,0.5],[1,0.5]];portConstraint=eastwest;" parent="106" vertex="1">
                    <mxGeometry y="86" width="370" height="26" as="geometry"/>
                </mxCell>
                <mxCell id="110" value="+ statusCtrlStateMachine(void): void" style="text;strokeColor=none;fillColor=none;align=left;verticalAlign=top;spacingLeft=4;spacingRight=4;overflow=hidden;rotatable=0;points=[[0,0.5],[1,0.5]];portConstraint=eastwest;" parent="106" vertex="1">
                    <mxGeometry y="112" width="370" height="26" as="geometry"/>
                </mxCell>
                <mxCell id="111" value="+ statusCtrlGetResetState(void): statusCtrlStm" style="text;strokeColor=none;fillColor=none;align=left;verticalAlign=top;spacingLeft=4;spacingRight=4;overflow=hidden;rotatable=0;points=[[0,0.5],[1,0.5]];portConstraint=eastwest;" parent="106" vertex="1">
                    <mxGeometry y="138" width="370" height="26" as="geometry"/>
                </mxCell>
                <mxCell id="119" value="nvm_cfg&lt;br&gt;input_cfg" style="text;html=1;strokeColor=none;fillColor=none;align=left;verticalAlign=middle;whiteSpace=wrap;rounded=0;fontStyle=2" parent="1" vertex="1">
                    <mxGeometry x="310" y="330" width="80" height="38" as="geometry"/>
                </mxCell>
                <mxCell id="121" value="nvm_cfg&lt;br&gt;wifi&lt;br&gt;reset_ctrl" style="text;html=1;strokeColor=none;fillColor=none;align=left;verticalAlign=middle;whiteSpace=wrap;rounded=0;fontStyle=2" parent="1" vertex="1">
                    <mxGeometry x="740" y="210" width="80" height="58" as="geometry"/>
                </mxCell>
                <mxCell id="127" value="nvm&lt;br&gt;wifi" style="text;html=1;strokeColor=none;fillColor=none;align=left;verticalAlign=middle;whiteSpace=wrap;rounded=0;fontStyle=2" parent="1" vertex="1">
                    <mxGeometry x="220" y="320" width="50" height="58" as="geometry"/>
                </mxCell>
                <mxCell id="130" value="outputs_cfg" style="text;html=1;strokeColor=none;fillColor=none;align=left;verticalAlign=middle;whiteSpace=wrap;rounded=0;fontStyle=2" parent="1" vertex="1">
                    <mxGeometry x="610" y="210" width="80" height="58" as="geometry"/>
                </mxCell>
                <mxCell id="131" value="&lt;span style=&quot;font-style: normal&quot;&gt;Handles all system resets&lt;/span&gt;" style="text;html=1;strokeColor=none;fillColor=none;align=center;verticalAlign=middle;whiteSpace=wrap;rounded=0;fontStyle=3" parent="1" vertex="1">
                    <mxGeometry x="100" y="10" width="370" height="38" as="geometry"/>
                </mxCell>
                <mxCell id="132" value="&lt;span style=&quot;font-style: normal&quot;&gt;Handles the system status LED's&lt;/span&gt;" style="text;html=1;strokeColor=none;fillColor=none;align=center;verticalAlign=middle;whiteSpace=wrap;rounded=0;fontStyle=3" parent="1" vertex="1">
                    <mxGeometry x="520" y="10" width="370" height="38" as="geometry"/>
                </mxCell>
            </root>
        </mxGraphModel>
    </diagram>
    <diagram id="QEalZbzLB9liNtcaojrc" name="hawkbit-client">
        <mxGraphModel dx="1765" dy="815" grid="1" gridSize="10" guides="1" tooltips="1" connect="1" arrows="1" fold="1" page="1" pageScale="1" pageWidth="1169" pageHeight="827" math="0" shadow="0">
            <root>
                <mxCell id="JSw6RXWsyhxE-JsQUc21-0"/>
                <mxCell id="JSw6RXWsyhxE-JsQUc21-1" parent="JSw6RXWsyhxE-JsQUc21-0"/>
                <mxCell id="vmH3-4a6sDSkSLDab3ZT-49" value="&lt;font style=&quot;font-size: 16px&quot;&gt;&lt;b&gt;hawkbit_client&lt;/b&gt;&lt;/font&gt;" style="html=1;align=center;verticalAlign=top;rounded=1;absoluteArcSize=1;arcSize=10;dashed=0;sketch=0;" parent="JSw6RXWsyhxE-JsQUc21-1" vertex="1">
                    <mxGeometry x="160" y="40" width="820" height="650" as="geometry"/>
                </mxCell>
                <mxCell id="vmH3-4a6sDSkSLDab3ZT-38" style="edgeStyle=orthogonalEdgeStyle;curved=0;rounded=1;sketch=0;orthogonalLoop=1;jettySize=auto;html=1;exitX=1;exitY=0.5;exitDx=0;exitDy=0;entryX=0.75;entryY=0;entryDx=0;entryDy=0;" parent="JSw6RXWsyhxE-JsQUc21-1" source="JSw6RXWsyhxE-JsQUc21-6" target="vmH3-4a6sDSkSLDab3ZT-12" edge="1">
                    <mxGeometry relative="1" as="geometry">
                        <Array as="points">
                            <mxPoint x="940" y="540"/>
                            <mxPoint x="940" y="140"/>
                            <mxPoint x="600" y="140"/>
                        </Array>
                    </mxGeometry>
                </mxCell>
                <mxCell id="vmH3-4a6sDSkSLDab3ZT-41" style="edgeStyle=orthogonalEdgeStyle;curved=0;rounded=1;sketch=0;orthogonalLoop=1;jettySize=auto;html=1;exitX=0.5;exitY=1;exitDx=0;exitDy=0;entryX=0.5;entryY=0;entryDx=0;entryDy=0;" parent="JSw6RXWsyhxE-JsQUc21-1" source="JSw6RXWsyhxE-JsQUc21-6" target="vmH3-4a6sDSkSLDab3ZT-40" edge="1">
                    <mxGeometry relative="1" as="geometry"/>
                </mxCell>
                <mxCell id="JSw6RXWsyhxE-JsQUc21-6" value="&lt;b&gt;stmHawkbitDeployAck&lt;br&gt;&lt;/b&gt;&lt;span style=&quot;font-size: 8px&quot;&gt;/HTTP POST deploy&lt;/span&gt;&lt;b&gt;&lt;br&gt;&lt;/b&gt;" style="html=1;align=center;verticalAlign=top;rounded=1;absoluteArcSize=1;arcSize=10;dashed=0;shadow=0;" parent="JSw6RXWsyhxE-JsQUc21-1" vertex="1">
                    <mxGeometry x="680" y="520" width="160" height="40" as="geometry"/>
                </mxCell>
                <mxCell id="vmH3-4a6sDSkSLDab3ZT-6" style="edgeStyle=orthogonalEdgeStyle;curved=0;rounded=1;sketch=0;orthogonalLoop=1;jettySize=auto;html=1;exitX=0.5;exitY=1;exitDx=0;exitDy=0;" parent="JSw6RXWsyhxE-JsQUc21-1" source="vmH3-4a6sDSkSLDab3ZT-1" target="vmH3-4a6sDSkSLDab3ZT-5" edge="1">
                    <mxGeometry relative="1" as="geometry"/>
                </mxCell>
                <mxCell id="vmH3-4a6sDSkSLDab3ZT-1" value="&lt;b&gt;stmHawkbitIdle&lt;/b&gt;&lt;br&gt;" style="html=1;align=center;verticalAlign=top;rounded=1;absoluteArcSize=1;arcSize=10;dashed=0;shadow=0;" parent="JSw6RXWsyhxE-JsQUc21-1" vertex="1">
                    <mxGeometry x="480" y="280" width="160" height="40" as="geometry"/>
                </mxCell>
                <mxCell id="vmH3-4a6sDSkSLDab3ZT-20" style="edgeStyle=orthogonalEdgeStyle;curved=0;rounded=1;sketch=0;orthogonalLoop=1;jettySize=auto;html=1;exitX=0.5;exitY=1;exitDx=0;exitDy=0;entryX=0.5;entryY=0;entryDx=0;entryDy=0;" parent="JSw6RXWsyhxE-JsQUc21-1" source="vmH3-4a6sDSkSLDab3ZT-2" target="vmH3-4a6sDSkSLDab3ZT-0" edge="1">
                    <mxGeometry relative="1" as="geometry"/>
                </mxCell>
                <mxCell id="vmH3-4a6sDSkSLDab3ZT-22" style="edgeStyle=orthogonalEdgeStyle;curved=0;rounded=1;sketch=0;orthogonalLoop=1;jettySize=auto;html=1;exitX=0;exitY=0.5;exitDx=0;exitDy=0;entryX=0.112;entryY=0;entryDx=0;entryDy=0;entryPerimeter=0;" parent="JSw6RXWsyhxE-JsQUc21-1" source="vmH3-4a6sDSkSLDab3ZT-2" target="vmH3-4a6sDSkSLDab3ZT-12" edge="1">
                    <mxGeometry relative="1" as="geometry">
                        <Array as="points">
                            <mxPoint x="220" y="460"/>
                            <mxPoint x="220" y="160"/>
                            <mxPoint x="498" y="160"/>
                        </Array>
                    </mxGeometry>
                </mxCell>
                <mxCell id="vmH3-4a6sDSkSLDab3ZT-2" value="&lt;b&gt;stmHawkbitCancel&lt;/b&gt;&lt;br&gt;&lt;font style=&quot;font-size: 8px&quot;&gt;/HTTP GET cancel&lt;/font&gt;" style="html=1;align=center;verticalAlign=top;rounded=1;absoluteArcSize=1;arcSize=10;dashed=0;shadow=0;" parent="JSw6RXWsyhxE-JsQUc21-1" vertex="1">
                    <mxGeometry x="480" y="440" width="160" height="40" as="geometry"/>
                </mxCell>
                <mxCell id="vmH3-4a6sDSkSLDab3ZT-34" style="edgeStyle=orthogonalEdgeStyle;curved=0;rounded=1;sketch=0;orthogonalLoop=1;jettySize=auto;html=1;exitX=1;exitY=0.5;exitDx=0;exitDy=0;" parent="JSw6RXWsyhxE-JsQUc21-1" source="vmH3-4a6sDSkSLDab3ZT-3" target="vmH3-4a6sDSkSLDab3ZT-12" edge="1">
                    <mxGeometry relative="1" as="geometry">
                        <Array as="points">
                            <mxPoint x="920" y="460"/>
                            <mxPoint x="920" y="160"/>
                            <mxPoint x="627" y="160"/>
                        </Array>
                    </mxGeometry>
                </mxCell>
                <mxCell id="vmH3-4a6sDSkSLDab3ZT-35" style="edgeStyle=orthogonalEdgeStyle;curved=0;rounded=1;sketch=0;orthogonalLoop=1;jettySize=auto;html=1;exitX=0.5;exitY=1;exitDx=0;exitDy=0;entryX=0.5;entryY=0;entryDx=0;entryDy=0;" parent="JSw6RXWsyhxE-JsQUc21-1" source="vmH3-4a6sDSkSLDab3ZT-3" target="JSw6RXWsyhxE-JsQUc21-6" edge="1">
                    <mxGeometry relative="1" as="geometry"/>
                </mxCell>
                <mxCell id="vmH3-4a6sDSkSLDab3ZT-3" value="&lt;b&gt;stmHawkbitDeploy&lt;br&gt;&lt;/b&gt;&lt;span style=&quot;font-size: 8px&quot;&gt;/HTTP GET deploy, program&lt;/span&gt;&lt;b&gt;&lt;br&gt;&lt;/b&gt;" style="html=1;align=center;verticalAlign=top;rounded=1;absoluteArcSize=1;arcSize=10;dashed=0;shadow=0;" parent="JSw6RXWsyhxE-JsQUc21-1" vertex="1">
                    <mxGeometry x="680" y="440" width="160" height="40" as="geometry"/>
                </mxCell>
                <mxCell id="vmH3-4a6sDSkSLDab3ZT-15" style="edgeStyle=orthogonalEdgeStyle;curved=0;rounded=1;sketch=0;orthogonalLoop=1;jettySize=auto;html=1;exitX=0.5;exitY=0;exitDx=0;exitDy=0;entryX=0;entryY=0.5;entryDx=0;entryDy=0;" parent="JSw6RXWsyhxE-JsQUc21-1" source="vmH3-4a6sDSkSLDab3ZT-4" target="vmH3-4a6sDSkSLDab3ZT-12" edge="1">
                    <mxGeometry relative="1" as="geometry"/>
                </mxCell>
                <mxCell id="vmH3-4a6sDSkSLDab3ZT-4" value="&lt;b&gt;stmHawkbitConfig&lt;/b&gt;&lt;br&gt;&lt;font style=&quot;font-size: 8px&quot;&gt;/HTTP PUT config&lt;/font&gt;" style="html=1;align=center;verticalAlign=top;rounded=1;absoluteArcSize=1;arcSize=10;dashed=0;shadow=0;" parent="JSw6RXWsyhxE-JsQUc21-1" vertex="1">
                    <mxGeometry x="240" y="360" width="160" height="40" as="geometry"/>
                </mxCell>
                <mxCell id="vmH3-4a6sDSkSLDab3ZT-8" style="edgeStyle=orthogonalEdgeStyle;curved=0;rounded=1;sketch=0;orthogonalLoop=1;jettySize=auto;html=1;exitX=1;exitY=0.5;exitDx=0;exitDy=0;entryX=1;entryY=0.5;entryDx=0;entryDy=0;" parent="JSw6RXWsyhxE-JsQUc21-1" source="vmH3-4a6sDSkSLDab3ZT-5" target="vmH3-4a6sDSkSLDab3ZT-12" edge="1">
                    <mxGeometry relative="1" as="geometry">
                        <Array as="points">
                            <mxPoint x="660" y="380"/>
                            <mxPoint x="660" y="220"/>
                        </Array>
                    </mxGeometry>
                </mxCell>
                <mxCell id="vmH3-4a6sDSkSLDab3ZT-11" style="edgeStyle=orthogonalEdgeStyle;curved=0;rounded=1;sketch=0;orthogonalLoop=1;jettySize=auto;html=1;exitX=0;exitY=0.5;exitDx=0;exitDy=0;entryX=1;entryY=0.5;entryDx=0;entryDy=0;" parent="JSw6RXWsyhxE-JsQUc21-1" source="vmH3-4a6sDSkSLDab3ZT-5" target="vmH3-4a6sDSkSLDab3ZT-4" edge="1">
                    <mxGeometry relative="1" as="geometry"/>
                </mxCell>
                <mxCell id="vmH3-4a6sDSkSLDab3ZT-26" style="edgeStyle=orthogonalEdgeStyle;curved=0;rounded=1;sketch=0;orthogonalLoop=1;jettySize=auto;html=1;exitX=0.25;exitY=1;exitDx=0;exitDy=0;entryX=0.25;entryY=0;entryDx=0;entryDy=0;" parent="JSw6RXWsyhxE-JsQUc21-1" source="vmH3-4a6sDSkSLDab3ZT-5" target="vmH3-4a6sDSkSLDab3ZT-2" edge="1">
                    <mxGeometry relative="1" as="geometry"/>
                </mxCell>
                <mxCell id="vmH3-4a6sDSkSLDab3ZT-27" style="edgeStyle=orthogonalEdgeStyle;curved=0;rounded=1;sketch=0;orthogonalLoop=1;jettySize=auto;html=1;exitX=0.75;exitY=1;exitDx=0;exitDy=0;" parent="JSw6RXWsyhxE-JsQUc21-1" source="vmH3-4a6sDSkSLDab3ZT-5" target="vmH3-4a6sDSkSLDab3ZT-3" edge="1">
                    <mxGeometry relative="1" as="geometry"/>
                </mxCell>
                <mxCell id="vmH3-4a6sDSkSLDab3ZT-5" value="&lt;b&gt;stmHawkbitPoll&lt;/b&gt;&lt;br&gt;&lt;font style=&quot;font-size: 8px&quot;&gt;/HTTP GET base&lt;/font&gt;" style="html=1;align=center;verticalAlign=top;rounded=1;absoluteArcSize=1;arcSize=10;dashed=0;shadow=0;" parent="JSw6RXWsyhxE-JsQUc21-1" vertex="1">
                    <mxGeometry x="480" y="360" width="160" height="40" as="geometry"/>
                </mxCell>
                <mxCell id="vmH3-4a6sDSkSLDab3ZT-23" style="edgeStyle=orthogonalEdgeStyle;curved=0;rounded=1;sketch=0;orthogonalLoop=1;jettySize=auto;html=1;exitX=0;exitY=0.5;exitDx=0;exitDy=0;entryX=0.25;entryY=0;entryDx=0;entryDy=0;" parent="JSw6RXWsyhxE-JsQUc21-1" source="vmH3-4a6sDSkSLDab3ZT-0" target="vmH3-4a6sDSkSLDab3ZT-12" edge="1">
                    <mxGeometry relative="1" as="geometry">
                        <Array as="points">
                            <mxPoint x="200" y="540"/>
                            <mxPoint x="200" y="140"/>
                            <mxPoint x="520" y="140"/>
                        </Array>
                    </mxGeometry>
                </mxCell>
                <mxCell id="vmH3-4a6sDSkSLDab3ZT-0" value="&lt;b&gt;stmHawkbitCancelAck&lt;br&gt;&lt;/b&gt;&lt;span style=&quot;font-size: 8px&quot;&gt;/HTTP POST cancel&lt;/span&gt;&lt;b&gt;&lt;br&gt;&lt;/b&gt;" style="html=1;align=center;verticalAlign=top;rounded=1;absoluteArcSize=1;arcSize=10;dashed=0;shadow=0;" parent="JSw6RXWsyhxE-JsQUc21-1" vertex="1">
                    <mxGeometry x="480" y="520" width="160" height="40" as="geometry"/>
                </mxCell>
                <mxCell id="vmH3-4a6sDSkSLDab3ZT-9" value="no action&lt;br&gt;OR&lt;br&gt;HTTP GET failed" style="text;html=1;resizable=0;autosize=1;align=center;verticalAlign=middle;points=[];fillColor=none;strokeColor=none;rounded=0;sketch=0;" parent="JSw6RXWsyhxE-JsQUc21-1" vertex="1">
                    <mxGeometry x="660" y="275" width="110" height="50" as="geometry"/>
                </mxCell>
                <mxCell id="vmH3-4a6sDSkSLDab3ZT-10" value="config" style="text;html=1;resizable=0;autosize=1;align=center;verticalAlign=middle;points=[];fillColor=none;strokeColor=none;rounded=0;sketch=0;" parent="JSw6RXWsyhxE-JsQUc21-1" vertex="1">
                    <mxGeometry x="430" y="360" width="50" height="20" as="geometry"/>
                </mxCell>
                <mxCell id="vmH3-4a6sDSkSLDab3ZT-13" style="edgeStyle=orthogonalEdgeStyle;curved=0;rounded=1;sketch=0;orthogonalLoop=1;jettySize=auto;html=1;exitX=0.5;exitY=1;exitDx=0;exitDy=0;entryX=0.5;entryY=0;entryDx=0;entryDy=0;" parent="JSw6RXWsyhxE-JsQUc21-1" source="vmH3-4a6sDSkSLDab3ZT-12" target="vmH3-4a6sDSkSLDab3ZT-1" edge="1">
                    <mxGeometry relative="1" as="geometry"/>
                </mxCell>
                <mxCell id="vmH3-4a6sDSkSLDab3ZT-46" style="edgeStyle=orthogonalEdgeStyle;curved=0;rounded=1;sketch=0;orthogonalLoop=1;jettySize=auto;html=1;exitX=0.5;exitY=0;exitDx=0;exitDy=0;endArrow=oval;endFill=1;startArrow=classic;startFill=1;" parent="JSw6RXWsyhxE-JsQUc21-1" source="vmH3-4a6sDSkSLDab3ZT-12" edge="1">
                    <mxGeometry relative="1" as="geometry">
                        <mxPoint x="560" y="110" as="targetPoint"/>
                    </mxGeometry>
                </mxCell>
                <mxCell id="vmH3-4a6sDSkSLDab3ZT-12" value="&lt;b&gt;stmHawkbitRestart&lt;/b&gt;&lt;br&gt;&lt;font style=&quot;font-size: 8px&quot;&gt;/reset st&lt;font style=&quot;font-size: 8px&quot;&gt;ateTimer&lt;/font&gt;&lt;/font&gt;" style="html=1;align=center;verticalAlign=top;rounded=1;absoluteArcSize=1;arcSize=10;dashed=0;shadow=0;" parent="JSw6RXWsyhxE-JsQUc21-1" vertex="1">
                    <mxGeometry x="480" y="200" width="160" height="40" as="geometry"/>
                </mxCell>
                <mxCell id="vmH3-4a6sDSkSLDab3ZT-14" value="timer expired" style="text;html=1;resizable=0;autosize=1;align=center;verticalAlign=middle;points=[];fillColor=none;strokeColor=none;rounded=0;sketch=0;" parent="JSw6RXWsyhxE-JsQUc21-1" vertex="1">
                    <mxGeometry x="560" y="330" width="80" height="20" as="geometry"/>
                </mxCell>
                <mxCell id="vmH3-4a6sDSkSLDab3ZT-21" value="cancel" style="text;html=1;resizable=0;autosize=1;align=center;verticalAlign=middle;points=[];fillColor=none;strokeColor=none;rounded=0;sketch=0;" parent="JSw6RXWsyhxE-JsQUc21-1" vertex="1">
                    <mxGeometry x="520" y="410" width="50" height="20" as="geometry"/>
                </mxCell>
                <mxCell id="vmH3-4a6sDSkSLDab3ZT-24" value="HTTP GET failed" style="text;html=1;resizable=0;autosize=1;align=center;verticalAlign=middle;points=[];fillColor=none;strokeColor=none;rounded=0;sketch=0;" parent="JSw6RXWsyhxE-JsQUc21-1" vertex="1">
                    <mxGeometry x="370" y="440" width="110" height="20" as="geometry"/>
                </mxCell>
                <mxCell id="vmH3-4a6sDSkSLDab3ZT-33" value="deploy" style="text;html=1;resizable=0;autosize=1;align=center;verticalAlign=middle;points=[];fillColor=none;strokeColor=none;rounded=0;sketch=0;" parent="JSw6RXWsyhxE-JsQUc21-1" vertex="1">
                    <mxGeometry x="660" y="400" width="50" height="20" as="geometry"/>
                </mxCell>
                <mxCell id="vmH3-4a6sDSkSLDab3ZT-36" value="HTTP GET&lt;br&gt;failed" style="text;html=1;resizable=0;autosize=1;align=center;verticalAlign=middle;points=[];fillColor=none;strokeColor=none;rounded=0;sketch=0;" parent="JSw6RXWsyhxE-JsQUc21-1" vertex="1">
                    <mxGeometry x="840" y="430" width="70" height="30" as="geometry"/>
                </mxCell>
                <mxCell id="vmH3-4a6sDSkSLDab3ZT-39" value="programming&lt;br&gt;failed" style="text;html=1;resizable=0;autosize=1;align=center;verticalAlign=middle;points=[];fillColor=none;strokeColor=none;rounded=0;sketch=0;" parent="JSw6RXWsyhxE-JsQUc21-1" vertex="1">
                    <mxGeometry x="840" y="510" width="90" height="30" as="geometry"/>
                </mxCell>
                <mxCell id="vmH3-4a6sDSkSLDab3ZT-40" value="&lt;b&gt;stmHawkbitWaitReboot&lt;/b&gt;&lt;b&gt;&lt;br&gt;&lt;/b&gt;" style="html=1;align=center;verticalAlign=top;rounded=1;absoluteArcSize=1;arcSize=10;dashed=0;shadow=0;" parent="JSw6RXWsyhxE-JsQUc21-1" vertex="1">
                    <mxGeometry x="680" y="600" width="160" height="40" as="geometry"/>
                </mxCell>
                <mxCell id="vmH3-4a6sDSkSLDab3ZT-42" value="programming success" style="text;html=1;resizable=0;autosize=1;align=center;verticalAlign=middle;points=[];fillColor=none;strokeColor=none;rounded=0;sketch=0;" parent="JSw6RXWsyhxE-JsQUc21-1" vertex="1">
                    <mxGeometry x="760" y="570" width="130" height="20" as="geometry"/>
                </mxCell>
                <mxCell id="vmH3-4a6sDSkSLDab3ZT-47" value="start" style="text;html=1;resizable=0;autosize=1;align=center;verticalAlign=middle;points=[];fillColor=none;strokeColor=none;rounded=0;sketch=0;" parent="JSw6RXWsyhxE-JsQUc21-1" vertex="1">
                    <mxGeometry x="540" y="90" width="40" height="20" as="geometry"/>
                </mxCell>
                <mxCell id="vmH3-4a6sDSkSLDab3ZT-50" style="edgeStyle=orthogonalEdgeStyle;curved=0;rounded=1;sketch=0;orthogonalLoop=1;jettySize=auto;html=1;exitX=0.5;exitY=1;exitDx=0;exitDy=0;entryX=1;entryY=0.5;entryDx=0;entryDy=0;startArrow=none;startFill=0;endArrow=classic;endFill=1;" parent="JSw6RXWsyhxE-JsQUc21-1" source="vmH3-4a6sDSkSLDab3ZT-40" target="vmH3-4a6sDSkSLDab3ZT-40" edge="1">
                    <mxGeometry relative="1" as="geometry"/>
                </mxCell>
            </root>
        </mxGraphModel>
    </diagram>
    <diagram id="HuKCnkLDAieOfh6PP6C8" name="reset-ctrl">
        <mxGraphModel dx="1765" dy="815" grid="1" gridSize="10" guides="1" tooltips="1" connect="1" arrows="1" fold="1" page="1" pageScale="1" pageWidth="1169" pageHeight="827" math="0" shadow="0">
            <root>
                <mxCell id="oUTKyedu1QjxSD_FHuAM-0"/>
                <mxCell id="oUTKyedu1QjxSD_FHuAM-1" parent="oUTKyedu1QjxSD_FHuAM-0"/>
            </root>
        </mxGraphModel>
    </diagram>
</mxfile>